<svg xmlns="http://www.w3.org/2000/svg" viewBox="0 0 900 650" role="img" aria-labelledby="title"><title>Orquídea Noche</title><rect width="900" height="650" fill="#151922"/><circle cx="724" cy="130" r="96" fill="#854dff" opacity=".25"/><path d="M214 190c62-34 154-44 236-12 56 22 96 74 128 122 33 50 73 77 146 91l54 11c27 5 44 32 37 59l-8 30H190c-49 0-82-50-61-95 13-28 39-48 76-59l9-147Z" fill="#05070a"/><path d="M263 216c58-25 125-29 181-7 45 18 78 64 108 111 38 59 92 93 165 105l43 7c13 2 21 15 18 28H188c-18 0-30-18-23-35 13-31 47-52 102-63l-4-146Z" fill="#f4edf8"/><circle cx="388" cy="318" r="23" fill="#e255a1"/><ellipse cx="388" cy="278" rx="18" ry="35" fill="#b357d4"/><ellipse cx="354" cy="323" rx="33" ry="17" fill="#e255a1" transform="rotate(-18 354 323)"/><ellipse cx="424" cy="323" rx="33" ry="17" fill="#e255a1" transform="rotate(18 424 323)"/><path d="M245 419h520" stroke="#2d8a56" stroke-width="28" stroke-linecap="round"/><path d="M183 462h594" stroke="#05070a" stroke-width="18" stroke-linecap="round"/></svg>
